<mxfile host="app.diagrams.net" agent="Mozilla/5.0 (Windows NT 10.0; Win64; x64) AppleWebKit/537.36 (KHTML, like Gecko) Chrome/136.0.0.0 Safari/537.36" version="27.0.6">
  <diagram name="Page-1" id="fNgNxzZMRu0rXdJfkYh3">
    <mxGraphModel dx="1103" dy="794" grid="0" gridSize="10" guides="1" tooltips="1" connect="1" arrows="1" fold="1" page="0" pageScale="1" pageWidth="827" pageHeight="1169" math="0" shadow="0">
      <root>
        <mxCell id="0" />
        <mxCell id="1" parent="0" />
        <mxCell id="-55NRkrlLFOeAr30YMbf-1" value="" style="rounded=0;whiteSpace=wrap;html=1;" vertex="1" parent="1">
          <mxGeometry x="-60" y="53" width="361" height="225" as="geometry" />
        </mxCell>
        <mxCell id="-55NRkrlLFOeAr30YMbf-2" value="" style="rounded=0;whiteSpace=wrap;html=1;" vertex="1" parent="1">
          <mxGeometry x="-50" y="62" width="343" height="60" as="geometry" />
        </mxCell>
        <mxCell id="-55NRkrlLFOeAr30YMbf-3" value="No" style="rounded=0;whiteSpace=wrap;html=1;" vertex="1" parent="1">
          <mxGeometry x="-37" y="68.5" width="69" height="47" as="geometry" />
        </mxCell>
        <mxCell id="-55NRkrlLFOeAr30YMbf-4" value="Name" style="rounded=0;whiteSpace=wrap;html=1;" vertex="1" parent="1">
          <mxGeometry x="41" y="68.5" width="85" height="47" as="geometry" />
        </mxCell>
        <mxCell id="-55NRkrlLFOeAr30YMbf-6" value="marks" style="rounded=0;whiteSpace=wrap;html=1;" vertex="1" parent="1">
          <mxGeometry x="135" y="68.5" width="85" height="47" as="geometry" />
        </mxCell>
        <mxCell id="-55NRkrlLFOeAr30YMbf-7" value="subject" style="rounded=0;whiteSpace=wrap;html=1;" vertex="1" parent="1">
          <mxGeometry x="229" y="68.5" width="59" height="47" as="geometry" />
        </mxCell>
        <mxCell id="-55NRkrlLFOeAr30YMbf-9" value="" style="rounded=0;whiteSpace=wrap;html=1;" vertex="1" parent="1">
          <mxGeometry x="-50" y="130" width="345" height="60" as="geometry" />
        </mxCell>
        <mxCell id="-55NRkrlLFOeAr30YMbf-10" value="1" style="rounded=0;whiteSpace=wrap;html=1;" vertex="1" parent="1">
          <mxGeometry x="-37" y="136.5" width="69" height="47" as="geometry" />
        </mxCell>
        <mxCell id="-55NRkrlLFOeAr30YMbf-11" value="Amit" style="rounded=0;whiteSpace=wrap;html=1;" vertex="1" parent="1">
          <mxGeometry x="41" y="135" width="85" height="47" as="geometry" />
        </mxCell>
        <mxCell id="-55NRkrlLFOeAr30YMbf-12" value="80" style="rounded=0;whiteSpace=wrap;html=1;" vertex="1" parent="1">
          <mxGeometry x="135" y="136.5" width="85" height="47" as="geometry" />
        </mxCell>
        <mxCell id="-55NRkrlLFOeAr30YMbf-13" value="Marth" style="rounded=0;whiteSpace=wrap;html=1;" vertex="1" parent="1">
          <mxGeometry x="229" y="136.5" width="59" height="47" as="geometry" />
        </mxCell>
        <mxCell id="-55NRkrlLFOeAr30YMbf-14" value="" style="rounded=0;whiteSpace=wrap;html=1;" vertex="1" parent="1">
          <mxGeometry x="-50" y="195" width="345" height="60" as="geometry" />
        </mxCell>
        <mxCell id="-55NRkrlLFOeAr30YMbf-15" value="1" style="rounded=0;whiteSpace=wrap;html=1;" vertex="1" parent="1">
          <mxGeometry x="-37" y="201.5" width="69" height="47" as="geometry" />
        </mxCell>
        <mxCell id="-55NRkrlLFOeAr30YMbf-16" value="Amit" style="rounded=0;whiteSpace=wrap;html=1;" vertex="1" parent="1">
          <mxGeometry x="41" y="200" width="85" height="47" as="geometry" />
        </mxCell>
        <mxCell id="-55NRkrlLFOeAr30YMbf-17" value="80" style="rounded=0;whiteSpace=wrap;html=1;" vertex="1" parent="1">
          <mxGeometry x="135" y="201.5" width="85" height="47" as="geometry" />
        </mxCell>
        <mxCell id="-55NRkrlLFOeAr30YMbf-18" value="Marth" style="rounded=0;whiteSpace=wrap;html=1;" vertex="1" parent="1">
          <mxGeometry x="229" y="201.5" width="59" height="47" as="geometry" />
        </mxCell>
      </root>
    </mxGraphModel>
  </diagram>
</mxfile>
